<svg width="32" height="32" viewBox="0 0 32 32" fill="none" xmlns="http://www.w3.org/2000/svg">
<path d="M0.459961 16.1797C0.459961 14.1616 0.857445 12.1634 1.62972 10.2989C2.40199 8.43449 3.53393 6.74042 4.96091 5.31345C6.38788 3.88647 8.08195 2.75453 9.94638 1.98226C11.8108 1.20998 13.8091 0.8125 15.8271 0.8125C17.8452 0.8125 19.8435 1.20998 21.7079 1.98226C23.5723 2.75453 25.2664 3.88647 26.6934 5.31345C28.1204 6.74042 29.2523 8.43449 30.0246 10.2989C30.7969 12.1634 31.1943 14.1616 31.1943 16.1797C31.1943 20.2553 29.5753 24.164 26.6934 27.0459C23.8115 29.9278 19.9028 31.5469 15.8271 31.5469C11.7515 31.5469 7.84281 29.9278 4.96091 27.0459C2.079 24.164 0.459961 20.2553 0.459961 16.1797ZM15.8271 3.3737C12.4308 3.3737 9.17354 4.7229 6.77195 7.12449C4.37036 9.52607 3.02116 12.7833 3.02116 16.1797C3.02116 19.576 4.37036 22.8333 6.77195 25.2349C9.17354 27.6365 12.4308 28.9857 15.8271 28.9857C19.2235 28.9857 22.4808 27.6365 24.8824 25.2349C27.2839 22.8333 28.6331 19.576 28.6331 16.1797C28.6331 12.7833 27.2839 9.52607 24.8824 7.12449C22.4808 4.7229 19.2235 3.3737 15.8271 3.3737Z" fill="#969696"/>
</svg>
