<svg width="22" height="22" viewBox="0 0 22 22" fill="none" xmlns="http://www.w3.org/2000/svg">
<path d="M10.9691 1.11328C5.44575 1.11328 0.968506 5.59028 0.968506 11.1133C0.968506 16.6363 5.44575 21.1133 10.9691 21.1133C16.4924 21.1133 20.9696 16.6363 20.9696 11.1133C20.9696 5.59028 16.4924 1.11328 10.9691 1.11328Z" stroke="#423B3C" stroke-width="1.5" stroke-linecap="round" stroke-linejoin="round"/>
<path d="M3.2395 17.4593C3.2395 17.4593 5.4685 14.6133 10.9685 14.6133C16.4685 14.6133 18.6985 17.4593 18.6985 17.4593M10.9685 11.1133C11.7642 11.1133 12.5272 10.7972 13.0898 10.2346C13.6524 9.67199 13.9685 8.90893 13.9685 8.11328C13.9685 7.31763 13.6524 6.55457 13.0898 5.99196C12.5272 5.42935 11.7642 5.11328 10.9685 5.11328C10.1729 5.11328 9.40979 5.42935 8.84718 5.99196C8.28457 6.55457 7.9685 7.31763 7.9685 8.11328C7.9685 8.90893 8.28457 9.67199 8.84718 10.2346C9.40979 10.7972 10.1729 11.1133 10.9685 11.1133V11.1133Z" stroke="#423B3C" stroke-width="1.5" stroke-linecap="round" stroke-linejoin="round"/>
</svg>
