<svg width="20" height="22" viewBox="0 0 20 22" fill="none" xmlns="http://www.w3.org/2000/svg">
<path d="M13.2796 17.2675V18.0368C13.2796 18.8528 12.9555 19.6355 12.3784 20.2125C11.8014 20.7896 11.0187 21.1138 10.2026 21.1138C9.38658 21.1138 8.60393 20.7896 8.02688 20.2125C7.44983 19.6355 7.12565 18.8528 7.12565 18.0368V17.2675M18.4567 15.7016C17.2221 14.1905 16.3504 13.4213 16.3504 9.25531C16.3504 5.44031 14.4023 4.08114 12.7989 3.42103C12.5859 3.33353 12.3854 3.13256 12.3205 2.91381C12.0392 1.95657 11.2508 1.11328 10.2026 1.11328C9.15455 1.11328 8.36559 1.95705 8.08721 2.91477C8.02231 3.13593 7.82182 3.33353 7.60884 3.42103C6.00351 4.0821 4.05731 5.43646 4.05731 9.25531C4.0549 13.4213 3.18325 14.1905 1.9486 15.7016C1.43705 16.3276 1.88514 17.2675 2.77987 17.2675H17.6302C18.5202 17.2675 18.9654 16.3247 18.4567 15.7016Z" stroke="#423B3C" stroke-width="1.5" stroke-linecap="round" stroke-linejoin="round"/>
</svg>
