<svg width="25" height="22" viewBox="0 0 25 22" fill="none" xmlns="http://www.w3.org/2000/svg">
<path d="M8.38738 21.1141C8.89608 21.1141 9.30846 20.7071 9.30846 20.205C9.30846 19.7029 8.89608 19.2959 8.38738 19.2959C7.87869 19.2959 7.46631 19.7029 7.46631 20.205C7.46631 20.7071 7.87869 21.1141 8.38738 21.1141Z" stroke="#423B3C" stroke-width="1.5" stroke-linecap="round" stroke-linejoin="round"/>
<path d="M21.2834 21.1141C21.7921 21.1141 22.2045 20.7071 22.2045 20.205C22.2045 19.7029 21.7921 19.2959 21.2834 19.2959C20.7747 19.2959 20.3623 19.7029 20.3623 20.205C20.3623 20.7071 20.7747 21.1141 21.2834 21.1141Z" stroke="#423B3C" stroke-width="1.5" stroke-linecap="round" stroke-linejoin="round"/>
<path d="M1.01855 1.11328H4.70306L7.46644 16.5682H22.2045" stroke="#423B3C" stroke-width="1.5" stroke-linecap="round" stroke-linejoin="round"/>
<path d="M7.46628 12.932H21.8266C21.9332 12.932 22.0364 12.8957 22.1188 12.829C22.2012 12.7624 22.2577 12.6697 22.2786 12.5666L23.9366 4.38458C23.95 4.31861 23.9483 4.25052 23.9318 4.18524C23.9153 4.11996 23.8843 4.05912 23.8411 4.00709C23.7978 3.95507 23.7434 3.91317 23.6818 3.88442C23.6202 3.85566 23.5528 3.84077 23.4847 3.84082H5.62402" stroke="#423B3C" stroke-width="1.5" stroke-linecap="round" stroke-linejoin="round"/>
</svg>
