<svg width="20" height="15" viewBox="0 0 20 15" fill="none" xmlns="http://www.w3.org/2000/svg">
<path d="M18.4835 6.77052C18.9227 7.34623 18.9227 8.12345 18.4835 8.69823C17.1002 10.508 13.7813 14.2344 9.90658 14.2344C6.03182 14.2344 2.71298 10.508 1.32966 8.69823C1.11599 8.42257 1 8.08344 1 7.73437C1 7.38531 1.11599 7.04618 1.32966 6.77052C2.71298 4.96073 6.03182 1.23438 9.90658 1.23438C13.7813 1.23438 17.1002 4.96073 18.4835 6.77052V6.77052Z" stroke="#878787" stroke-width="1.5" stroke-linecap="round" stroke-linejoin="round"/>
<path d="M9.90459 10.5206C11.4397 10.5206 12.6842 9.27344 12.6842 7.73493C12.6842 6.19643 11.4397 4.94922 9.90459 4.94922C8.36947 4.94922 7.125 6.19643 7.125 7.73493C7.125 9.27344 8.36947 10.5206 9.90459 10.5206Z" fill="#878787"/>
</svg>
