<svg width="11" height="11" viewBox="0 0 11 11" fill="none" xmlns="http://www.w3.org/2000/svg">
<path d="M5.60889 4.40104C5.71939 4.40104 5.82537 4.44494 5.90351 4.52308C5.98166 4.60122 6.02555 4.7072 6.02555 4.81771V7.31771C6.02555 7.42822 5.98166 7.5342 5.90351 7.61234C5.82537 7.69048 5.71939 7.73438 5.60889 7.73438C5.49838 7.73438 5.3924 7.69048 5.31426 7.61234C5.23612 7.5342 5.19222 7.42822 5.19222 7.31771V4.81771C5.19222 4.7072 5.23612 4.60122 5.31426 4.52308C5.3924 4.44494 5.49838 4.40104 5.60889 4.40104ZM5.60889 3.77604C5.69096 3.77604 5.77224 3.75988 5.84806 3.72847C5.92389 3.69706 5.99279 3.65102 6.05083 3.59298C6.10886 3.53495 6.1549 3.46605 6.18631 3.39022C6.21772 3.31439 6.23389 3.23312 6.23389 3.15104C6.23389 3.06897 6.21772 2.98769 6.18631 2.91186C6.1549 2.83604 6.10886 2.76714 6.05083 2.7091C5.99279 2.65106 5.92389 2.60503 5.84806 2.57362C5.77224 2.54221 5.69096 2.52604 5.60889 2.52604C5.44335 2.52604 5.28459 2.5918 5.16753 2.70886C5.05048 2.82591 4.98472 2.98467 4.98472 3.15021C4.98472 3.31575 5.05048 3.47451 5.16753 3.59156C5.28459 3.70861 5.44335 3.77438 5.60889 3.77438V3.77604ZM0.608887 5.23438C0.608887 4.57777 0.738215 3.92759 0.989489 3.32096C1.24076 2.71433 1.60906 2.16313 2.07335 1.69884C2.53765 1.23455 3.08884 0.866251 3.69547 0.614977C4.3021 0.363704 4.95228 0.234375 5.60889 0.234375C6.2655 0.234375 6.91568 0.363704 7.5223 0.614977C8.12893 0.866251 8.68013 1.23455 9.14442 1.69884C9.60871 2.16313 9.97701 2.71433 10.2283 3.32096C10.4796 3.92759 10.6089 4.57777 10.6089 5.23438C10.6089 6.56046 10.0821 7.83223 9.14442 8.76991C8.20674 9.70759 6.93497 10.2344 5.60889 10.2344C4.2828 10.2344 3.01103 9.70759 2.07335 8.76991C1.13567 7.83223 0.608887 6.56046 0.608887 5.23438ZM5.60889 1.06771C4.50382 1.06771 3.44401 1.5067 2.66261 2.2881C1.88121 3.0695 1.44222 4.12931 1.44222 5.23438C1.44222 6.33944 1.88121 7.39925 2.66261 8.18065C3.44401 8.96205 4.50382 9.40104 5.60889 9.40104C6.71396 9.40104 7.77376 8.96205 8.55516 8.18065C9.33657 7.39925 9.77555 6.33944 9.77555 5.23438C9.77555 4.12931 9.33657 3.0695 8.55516 2.2881C7.77376 1.5067 6.71396 1.06771 5.60889 1.06771Z" fill="#969696"/>
</svg>
