<svg width="40" height="40" viewBox="0 0 40 40" fill="none" xmlns="http://www.w3.org/2000/svg">
<path fill-rule="evenodd" clip-rule="evenodd" d="M28.3892 26.0793L38.8871 36.5772C39.2561 36.9465 39.4633 37.4472 39.4631 37.9692C39.4629 38.4912 39.2554 38.9918 38.8861 39.3607C38.5169 39.7297 38.0162 39.9369 37.4942 39.9367C36.9722 39.9366 36.4716 39.729 36.1026 39.3598L25.6047 28.8618C22.4665 31.2925 18.5201 32.4364 14.5685 32.0607C10.6168 31.685 6.9567 29.818 4.33271 26.8396C1.70872 23.8611 0.317952 19.9948 0.443345 16.0273C0.568737 12.0599 2.20087 8.28915 5.0077 5.48231C7.81454 2.67548 11.5852 1.04335 15.5527 0.917954C19.5202 0.792562 23.3865 2.18333 26.3649 4.80732C29.3434 7.43131 31.2104 11.0914 31.5861 15.0431C31.9617 18.9947 30.8179 22.9411 28.3872 26.0793H28.3892ZM16.0473 28.2277C19.1524 28.2277 22.1303 26.9942 24.3259 24.7986C26.5215 22.6029 27.755 19.625 27.755 16.52C27.755 13.4149 26.5215 10.437 24.3259 8.24134C22.1303 6.04572 19.1524 4.81223 16.0473 4.81223C12.9422 4.81223 9.96431 6.04572 7.76868 8.24134C5.57306 10.437 4.33957 13.4149 4.33957 16.52C4.33957 19.625 5.57306 22.6029 7.76868 24.7986C9.96431 26.9942 12.9422 28.2277 16.0473 28.2277Z" fill="#443988"/>
<path d="M11.2734 21.54L20.9112 11.9023" stroke="#443988" stroke-width="3" stroke-linecap="round" stroke-linejoin="round"/>
<path d="M20.9121 21.54L11.2744 11.9023" stroke="#443988" stroke-width="3" stroke-linecap="round" stroke-linejoin="round"/>
</svg>
