<svg width="124" height="89" viewBox="0 0 124 89" fill="none" xmlns="http://www.w3.org/2000/svg">
<path d="M6.15614 63.5977L117.766 63.5977C120.137 63.5977 122.059 61.8682 122.059 59.7348L122.059 5.65411C122.059 3.52069 120.137 1.79121 117.766 1.79121L6.15614 1.79121C3.78535 1.79121 1.86345 3.52069 1.86345 5.65411L1.86345 59.7348C1.86345 61.8682 3.78535 63.5977 6.15614 63.5977Z" stroke="#FF3F20" stroke-width="3.5" stroke-linejoin="round"/>
<path d="M10.457 75.1758H113.481M19.0424 86.7645H104.896" stroke="#FF3F20" stroke-width="3.5" stroke-linecap="round" stroke-linejoin="round"/>
<path d="M122.07 21.084C116.378 21.084 110.918 19.0491 106.893 15.427C102.868 11.8048 100.607 6.89206 100.607 1.76953M1.875 21.084C4.69362 21.084 7.48463 20.5845 10.0887 19.6138C12.6928 18.6432 15.0589 17.2205 17.0519 15.427C19.045 13.6334 20.626 11.5042 21.7046 9.16088C22.7833 6.81753 23.3384 4.30595 23.3384 1.76953M122.07 44.2615C116.378 44.2615 110.918 46.2964 106.893 49.9186C102.868 53.5407 100.607 58.4535 100.607 63.576M1.875 44.2615C4.69362 44.2615 7.48463 44.761 10.0887 45.7317C12.6928 46.7023 15.0589 48.125 17.0519 49.9186C19.045 51.7121 20.626 53.8413 21.7046 56.1846C22.7833 58.528 23.3384 61.0396 23.3384 63.576" stroke="#FF3F20" stroke-width="3.5" stroke-linecap="round" stroke-linejoin="round"/>
<circle cx="62.1992" cy="32.9102" r="15.7813" fill="#FBFBFB" stroke="#FF3F20" stroke-width="3.5"/>
<path d="M56.1562 39.4883L68.7745 26.87" stroke="#FF3F20" stroke-width="3.5" stroke-linecap="round" stroke-linejoin="round"/>
<path d="M68.7773 39.4883L56.1591 26.87" stroke="#FF3F20" stroke-width="3.5" stroke-linecap="round" stroke-linejoin="round"/>
</svg>
