<svg width="17" height="16" viewBox="0 0 17 16" fill="none" xmlns="http://www.w3.org/2000/svg">
<path d="M15.4408 6.47301L14.6583 7.82536L15.4401 9.17771C15.4868 9.2583 15.5171 9.34731 15.5294 9.43963C15.5416 9.53196 15.5356 9.62579 15.5116 9.71577C15.4875 9.80576 15.446 9.89012 15.3894 9.96405C15.3327 10.038 15.262 10.1 15.1814 10.1466L13.8276 10.9291V12.4877C13.8276 12.6757 13.753 12.856 13.62 12.9889C13.4871 13.1218 13.3068 13.1965 13.1189 13.1965H11.5603L10.7785 14.5503C10.6842 14.7128 10.5294 14.8313 10.3479 14.8798C10.1664 14.9283 9.97303 14.9028 9.81028 14.809L8.45651 14.0265L7.10416 14.809C6.99501 14.872 6.87239 14.9046 6.74907 14.9046C6.62479 14.9039 6.50285 14.8709 6.39523 14.8087C6.2876 14.7466 6.19801 14.6575 6.13526 14.5503L5.35277 13.1965H3.79346C3.60548 13.1965 3.4252 13.1218 3.29227 12.9889C3.15935 12.856 3.08468 12.6757 3.08468 12.4877V10.9291L1.73091 10.1466C1.56874 10.0518 1.45062 9.89681 1.40229 9.71531C1.35396 9.53381 1.37935 9.34057 1.47292 9.17771L2.25541 7.82536L1.47292 6.47301C1.42605 6.39246 1.39556 6.30345 1.3832 6.21109C1.37084 6.11872 1.37686 6.02482 1.4009 5.93479C1.42494 5.84476 1.46653 5.76036 1.52328 5.68645C1.58004 5.61254 1.65084 5.55057 1.73162 5.50411L3.08539 4.72162V3.16301C3.08539 2.97503 3.16006 2.79475 3.29298 2.66183C3.42591 2.52891 3.60619 2.45423 3.79417 2.45423H5.35277L6.13526 1.10046C6.22926 0.937676 6.38406 0.818893 6.56563 0.770244C6.7472 0.721595 6.94066 0.747065 7.10345 0.841051L8.45722 1.62425L9.81099 0.84176C9.89151 0.794936 9.98052 0.76456 10.0729 0.752393C10.1652 0.740227 10.2591 0.746511 10.349 0.770882C10.5302 0.820145 10.6848 0.938803 10.7792 1.10117L11.561 2.45423H13.1196C13.3076 2.45423 13.4878 2.52891 13.6208 2.66183C13.7537 2.79475 13.8283 2.97503 13.8283 3.16301V4.72232L15.1821 5.50482C15.3448 5.59893 15.4634 5.75379 15.5119 5.93535C15.5604 6.11691 15.5349 6.3103 15.4408 6.47301Z" stroke="#443988"/>
<path d="M6.68497 4.28125C6.96703 4.28134 7.23751 4.39348 7.43689 4.593C7.63627 4.79251 7.74823 5.06306 7.74814 5.34513C7.74804 5.62719 7.63591 5.89767 7.43639 6.09705C7.23687 6.29643 6.96633 6.40839 6.68426 6.4083C6.4022 6.4082 6.13172 6.29606 5.93234 6.09655C5.73296 5.89703 5.621 5.62648 5.62109 5.34442C5.62119 5.06235 5.73333 4.79188 5.93284 4.5925C6.13236 4.39312 6.40291 4.28116 6.68497 4.28125ZM7.32257 10.5189C7.08784 10.8319 6.64388 10.8954 6.33081 10.6608C6.01756 10.426 5.954 9.98178 6.18887 9.66862L9.59126 5.1321C9.82599 4.81912 10.27 4.75561 10.583 4.99021C10.8963 5.22495 10.9598 5.66922 10.725 5.98238L7.32257 10.5189ZM10.2289 11.369C10.0892 11.369 9.95091 11.3414 9.8219 11.2879C9.69289 11.2345 9.57567 11.1561 9.47694 11.0573C9.37822 10.9585 9.29992 10.8412 9.24652 10.7122C9.19311 10.5831 9.16565 10.4448 9.1657 10.3052C9.16574 10.1655 9.1933 10.0272 9.24679 9.8982C9.30028 9.76918 9.37866 9.65197 9.47745 9.55324C9.57624 9.45452 9.6935 9.37622 9.82255 9.32281C9.9516 9.26941 10.0899 9.24195 10.2296 9.24199C10.5116 9.24209 10.7821 9.35423 10.9815 9.55374C11.1809 9.75326 11.2928 10.0238 11.2927 10.3059C11.2926 10.5879 11.1805 10.8584 10.981 11.0578C10.7815 11.2572 10.5109 11.3691 10.2289 11.369Z" fill="#443988"/>
</svg>
