<svg width="32" height="32" viewBox="0 0 32 32" fill="none" xmlns="http://www.w3.org/2000/svg">
<path d="M0.459961 16.1797C0.459961 14.1616 0.857445 12.1634 1.62972 10.2989C2.40199 8.43449 3.53393 6.74042 4.96091 5.31345C6.38788 3.88647 8.08195 2.75453 9.94638 1.98226C11.8108 1.20998 13.8091 0.8125 15.8271 0.8125C17.8452 0.8125 19.8435 1.20998 21.7079 1.98226C23.5723 2.75453 25.2664 3.88647 26.6934 5.31345C28.1204 6.74042 29.2523 8.43449 30.0246 10.2989C30.7969 12.1634 31.1943 14.1616 31.1943 16.1797C31.1943 20.2553 29.5753 24.164 26.6934 27.0459C23.8115 29.9278 19.9028 31.5469 15.8271 31.5469C11.7515 31.5469 7.84281 29.9278 4.96091 27.0459C2.079 24.164 0.459961 20.2553 0.459961 16.1797ZM15.8271 3.3737C12.4308 3.3737 9.17354 4.7229 6.77195 7.12449C4.37036 9.52607 3.02116 12.7833 3.02116 16.1797C3.02116 19.576 4.37036 22.8333 6.77195 25.2349C9.17354 27.6365 12.4308 28.9857 15.8271 28.9857C19.2235 28.9857 22.4808 27.6365 24.8824 25.2349C27.2839 22.8333 28.6331 19.576 28.6331 16.1797C28.6331 12.7833 27.2839 9.52607 24.8824 7.12449C22.4808 4.7229 19.2235 3.3737 15.8271 3.3737Z" fill="#969696"/>
<path d="M15.8271 9.21484C16.1965 9.21484 16.5507 9.36156 16.8119 9.62272C17.073 9.88388 17.2197 10.2381 17.2197 10.6074V14.7852H21.3975C21.7668 14.7852 22.121 14.9319 22.3822 15.193C22.6433 15.4542 22.79 15.8084 22.79 16.1777C22.79 16.5471 22.6433 16.9013 22.3822 17.1624C22.121 17.4236 21.7668 17.5703 21.3975 17.5703H17.2197V21.748C17.2197 22.1174 17.073 22.4716 16.8119 22.7327C16.5507 22.9939 16.1965 23.1406 15.8271 23.1406C15.4578 23.1406 15.1036 22.9939 14.8424 22.7327C14.5813 22.4716 14.4346 22.1174 14.4346 21.748V17.5703H10.2568C9.8875 17.5703 9.53329 17.4236 9.27213 17.1624C9.01098 16.9013 8.86426 16.5471 8.86426 16.1777C8.86426 15.8084 9.01098 15.4542 9.27213 15.193C9.53329 14.9319 9.8875 14.7852 10.2568 14.7852H14.4346V10.6074C14.4346 10.2381 14.5813 9.88388 14.8424 9.62272C15.1036 9.36156 15.4578 9.21484 15.8271 9.21484Z" fill="#969696"/>
</svg>
