<svg width="36" height="33" viewBox="0 0 36 33" fill="none" xmlns="http://www.w3.org/2000/svg">
<path d="M22.1711 1.8252C22.1711 1.8252 20.544 2.40212 17.9883 2.40212C15.4326 2.40212 13.8054 1.8252 13.8054 1.8252C13.5483 1.8252 13.293 1.86909 13.0504 1.955L1.98828 5.86366L3.17614 12.2098L6.66757 12.6079C7.09514 12.6567 7.48887 12.8661 7.77059 13.1945C8.05231 13.5229 8.20141 13.9463 8.18828 14.3805L7.70257 31.8252H28.274L27.7883 14.3805C27.7752 13.9463 27.9243 13.5229 28.206 13.1945C28.4877 12.8661 28.8814 12.6567 29.309 12.6079L32.8004 12.2098L33.9883 5.86366L22.9261 1.955C22.6835 1.86909 22.4283 1.8252 22.1711 1.8252V1.8252Z" stroke="#443988" stroke-width="2.3096" stroke-linecap="round" stroke-linejoin="round"/>
<path d="M23.5101 2.16211C23.1862 3.39107 22.4692 4.47755 21.4705 5.25261C20.4719 6.02766 19.2476 6.44786 17.988 6.44786C16.7283 6.44786 15.504 6.02766 14.5054 5.25261C13.5067 4.47755 12.7897 3.39107 12.4658 2.16211" stroke="#443988" stroke-width="2.3096" stroke-linecap="round" stroke-linejoin="round"/>
</svg>
