<svg width="37" height="35" viewBox="0 0 37 35" fill="none" xmlns="http://www.w3.org/2000/svg">
<path d="M3.73242 9.22656V30.5599C3.73506 31.4431 4.0871 32.2895 4.71165 32.914C5.3362 33.5386 6.18251 33.8906 7.06576 33.8932H29.7324C30.6157 33.8906 31.462 33.5386 32.0865 32.914C32.7111 32.2895 33.0631 31.4431 33.0658 30.5599V9.22656" stroke="#443988" stroke-width="2" stroke-linecap="round" stroke-linejoin="round"/>
<path d="M33.3997 1.89453H3.39974C2.11108 1.89453 1.06641 2.9392 1.06641 4.22786V6.22786C1.06641 7.51653 2.11108 8.5612 3.39974 8.5612H33.3997C34.6884 8.5612 35.7331 7.51653 35.7331 6.22786V4.22786C35.7331 2.9392 34.6884 1.89453 33.3997 1.89453Z" stroke="#443988" stroke-width="2" stroke-linejoin="round"/>
<path d="M23.7331 21.8932L18.3997 27.2266L13.0664 21.8932M18.3997 25.3841V15.2266" stroke="#443988" stroke-width="2" stroke-linecap="round" stroke-linejoin="round"/>
</svg>
