<svg width="48" height="35" viewBox="0 0 48 35" fill="none" xmlns="http://www.w3.org/2000/svg">
<path d="M3.10765 25.0781L45.1336 25.0781C46.0263 25.0781 46.75 24.4269 46.75 23.6236V3.25984C46.75 2.45652 46.0263 1.80529 45.1336 1.80529L3.10765 1.80529C2.21495 1.80529 1.49127 2.45652 1.49127 3.25984V23.6236C1.49127 24.4269 2.21495 25.0781 3.10765 25.0781Z" stroke="#443988" stroke-width="2" stroke-linejoin="round"/>
<path d="M4.72852 29.4375H43.5217M7.96128 33.8012H40.2889" stroke="#443988" stroke-width="2" stroke-linecap="round" stroke-linejoin="round"/>
<path d="M24.1222 20.7057C28.5864 20.7057 32.2053 17.4496 32.2053 13.4329C32.2053 9.41628 28.5864 6.16016 24.1222 6.16016C19.658 6.16016 16.0391 9.41628 16.0391 13.4329C16.0391 17.4496 19.658 20.7057 24.1222 20.7057Z" stroke="#443988" stroke-width="2" stroke-linecap="round" stroke-linejoin="round"/>
<path d="M46.7548 9.06964C44.6114 9.06964 42.5557 8.3034 41.04 6.93949C39.5244 5.57559 38.6729 3.72573 38.6729 1.79688M1.49609 9.06964C2.55743 9.06964 3.60837 8.88152 4.58891 8.51603C5.56945 8.15054 6.4604 7.61483 7.21087 6.93949C7.96135 6.26416 8.55666 5.46241 8.96281 4.58004C9.36897 3.69767 9.57801 2.75195 9.57801 1.79688M46.7548 17.7969C44.6114 17.7969 42.5557 18.5632 41.04 19.9271C39.5244 21.291 38.6729 23.1409 38.6729 25.0697M1.49609 17.7969C2.55743 17.7969 3.60837 17.9851 4.58891 18.3506C5.56945 18.716 6.4604 19.2518 7.21087 19.9271C7.96135 20.6024 8.55666 21.4042 8.96281 22.2865C9.36897 23.1689 9.57801 24.1146 9.57801 25.0697" stroke="#443988" stroke-width="2" stroke-linecap="round" stroke-linejoin="round"/>
</svg>
