<svg width="42" height="35" viewBox="0 0 42 35" fill="none" xmlns="http://www.w3.org/2000/svg">
<path d="M12.9121 23.9509V1.79688L15.6475 3.02765L18.383 1.79688L21.1133 3.02765L23.8803 1.79688L26.5893 3.02765L29.3067 1.79688L32.0362 3.02765L34.7955 1.79688L37.5318 3.02765L40.2664 1.79688V19.0278" stroke="#443988" stroke-width="2" stroke-linejoin="round"/>
<path d="M40.2706 19.0312V27.6467C40.2706 29.2788 39.5502 30.8441 38.2677 31.9982C36.9852 33.1523 35.2458 33.8006 33.4321 33.8006C31.6184 33.8006 29.879 33.1523 28.5965 31.9982C27.314 30.8441 26.5935 29.2788 26.5935 27.6467V23.9544H3.34238C3.16232 23.9529 2.98375 23.9838 2.81709 24.0451C2.65043 24.1065 2.49902 24.1971 2.3717 24.3117C2.24438 24.4262 2.14369 24.5625 2.07552 24.7125C2.00735 24.8624 1.97307 25.0231 1.97466 25.1851C1.97466 30.1083 2.55081 33.8006 8.81323 33.8006H33.4321" stroke="#443988" stroke-width="2" stroke-linejoin="round"/>
<path d="M18.3887 9.17969H34.8012M23.8595 15.3336H34.8012" stroke="#443988" stroke-width="2" stroke-linecap="round" stroke-linejoin="round"/>
</svg>
