<svg width="42" height="35" viewBox="0 0 42 35" fill="none" xmlns="http://www.w3.org/2000/svg">
<path d="M11.5485 33.7969C11.1858 33.7969 10.8379 33.6672 10.5814 33.4364C10.3249 33.2056 10.1808 32.8925 10.1808 32.5661V27.643H8.12927C6.49751 27.6414 4.9331 27.0574 3.77927 26.0191C2.62544 24.9807 1.97642 23.573 1.97461 22.1046V7.33534C1.97642 5.86695 2.62544 4.45916 3.77927 3.42085C4.9331 2.38254 6.49751 1.7985 8.12927 1.79688H34.1156C35.7474 1.7985 37.3118 2.38254 38.4656 3.42085C39.6195 4.45916 40.2685 5.86695 40.2703 7.33534V22.1046C40.2685 23.573 39.6195 24.9807 38.4656 26.0191C37.3118 27.0574 35.7474 27.6414 34.1156 27.643H20.2454L12.4247 33.5115C12.1786 33.6957 11.8686 33.7966 11.5485 33.7969V33.7969Z" stroke="#443988" stroke-width="2"/>
</svg>
