<svg width="34" height="35" viewBox="0 0 34 35" fill="none" xmlns="http://www.w3.org/2000/svg">
<path d="M17.7063 13.1639C16.7246 13.067 15.7368 13.2758 14.8783 13.7619C14.0199 14.248 13.3326 14.9876 12.9107 15.8793C12.4888 16.7711 12.3528 17.7715 12.5214 18.7435C12.69 19.7156 13.1549 20.6117 13.8525 21.3093C14.5501 22.0069 15.4463 22.4718 16.4183 22.6404C17.3903 22.809 18.3907 22.6731 19.2825 22.2511C20.1743 21.8292 20.9138 21.142 21.3999 20.2835C21.886 19.425 22.0949 18.4373 21.9979 17.4555C21.8874 16.3549 21.3997 15.3264 20.6176 14.5443C19.8354 13.7621 18.8069 13.2745 17.7063 13.1639V13.1639ZM29.2278 17.9258C29.2248 18.4459 29.1866 18.9652 29.1134 19.4802L32.4936 22.1314C32.6408 22.2534 32.74 22.4236 32.7735 22.6119C32.8071 22.8001 32.7728 22.9941 32.6768 23.1594L29.4791 28.6921C29.3819 28.8559 29.2301 28.9801 29.0504 29.0429C28.8707 29.1057 28.6746 29.103 28.4966 29.0353L25.1396 27.6835C24.9545 27.6098 24.754 27.5832 24.556 27.606C24.3581 27.6289 24.1689 27.7005 24.0054 27.8144C23.4931 28.1672 22.9547 28.4806 22.3949 28.7519C22.219 28.8375 22.0667 28.965 21.9517 29.1233C21.8367 29.2816 21.7625 29.4658 21.7355 29.6596L21.2323 33.2402C21.1993 33.4293 21.1016 33.601 20.9559 33.7261C20.8103 33.8511 20.6257 33.9217 20.4338 33.9258H14.0383C13.8495 33.9225 13.6675 33.855 13.5223 33.7345C13.377 33.614 13.2771 33.4475 13.239 33.2626L12.7366 29.6873C12.7084 29.4913 12.6322 29.3054 12.5148 29.146C12.3974 28.9866 12.2425 28.8587 12.0637 28.7736C11.5046 28.5038 10.9681 28.1895 10.4592 27.8338C10.2963 27.7205 10.1078 27.6494 9.91054 27.6271C9.71332 27.6048 9.51365 27.6319 9.32952 27.706L5.97326 29.057C5.79539 29.1247 5.59933 29.1275 5.41962 29.0649C5.2399 29.0022 5.08805 28.8782 4.99083 28.7146L1.79307 23.1819C1.69693 23.0166 1.66257 22.8225 1.69612 22.6342C1.72966 22.446 1.82893 22.2757 1.97625 22.1538L4.83307 19.9108C4.98958 19.7866 5.11259 19.6252 5.19093 19.4414C5.26927 19.2576 5.30046 19.0571 5.28167 18.8581C5.25475 18.5463 5.2383 18.2353 5.2383 17.9235C5.2383 17.6118 5.254 17.3052 5.28167 17.0002C5.2984 16.8024 5.26568 16.6036 5.18646 16.4217C5.10723 16.2398 4.98399 16.0804 4.82783 15.9579L1.97251 13.7149C1.82758 13.5924 1.7304 13.4228 1.69801 13.2357C1.66561 13.0487 1.70006 12.8563 1.79531 12.6921L4.99307 7.15943C5.09018 6.99568 5.24198 6.87147 5.4217 6.80869C5.60143 6.74591 5.79755 6.74858 5.9755 6.81625L9.33251 8.16802C9.51763 8.24173 9.71815 8.26836 9.9161 8.24553C10.114 8.22269 10.3032 8.15111 10.4667 8.03718C10.9791 7.68438 11.5174 7.37095 12.0772 7.09961C12.2532 7.01408 12.4054 6.88653 12.5204 6.72823C12.6354 6.56993 12.7097 6.38575 12.7366 6.19195L13.2398 2.61139C13.2728 2.42229 13.3705 2.25054 13.5162 2.12549C13.6618 2.00044 13.8464 1.92985 14.0383 1.92578H20.4338C20.6226 1.92905 20.8046 1.99651 20.9499 2.11706C21.0951 2.23761 21.195 2.40405 21.2331 2.58896L21.7355 6.16429C21.7637 6.36022 21.8399 6.54615 21.9573 6.70555C22.0747 6.86494 22.2296 6.99286 22.4084 7.07793C22.9675 7.3478 23.504 7.66208 24.0129 8.01774C24.1758 8.1311 24.3644 8.20214 24.5616 8.22446C24.7588 8.24678 24.9585 8.21967 25.1426 8.14559L28.4989 6.79457C28.6767 6.72684 28.8728 6.72405 29.0525 6.78669C29.2322 6.84933 29.3841 6.97338 29.4813 7.137L32.6791 12.6697C32.7752 12.835 32.8095 13.0291 32.776 13.2173C32.7425 13.4056 32.6432 13.5758 32.4959 13.6977L29.6391 15.9407C29.4819 16.0646 29.3581 16.2258 29.2791 16.4096C29.2001 16.5935 29.1684 16.7942 29.1867 16.9934C29.2114 17.303 29.2278 17.614 29.2278 17.9258Z" stroke="#443988" stroke-width="2" stroke-linecap="round" stroke-linejoin="round"/>
</svg>
