<svg width="98" height="28" viewBox="0 0 98 28" fill="none" xmlns="http://www.w3.org/2000/svg">
<path d="M40.1687 13.5699C39.9144 13.5688 39.6707 13.4672 39.4909 13.2874C39.311 13.1075 39.2094 12.8639 39.2083 12.6095V8.02411C36.7138 13.043 36.7138 13.0599 36.7138 13.0599C36.6434 13.2174 36.5274 13.3502 36.3808 13.4411C36.2343 13.532 36.0638 13.5768 35.8915 13.5699C35.7165 13.5807 35.5426 13.5354 35.3951 13.4406C35.2477 13.3459 35.1342 13.2066 35.0713 13.043L32.5597 8.02411V12.5904C32.5559 12.8478 32.4519 13.0937 32.2698 13.2758C32.0878 13.4578 31.8419 13.5618 31.5844 13.5657C31.3285 13.5612 31.0846 13.4566 30.905 13.2742C30.7254 13.0918 30.6245 12.8463 30.624 12.5904V3.9487C30.6251 3.69433 30.7267 3.45069 30.9066 3.27082C31.0864 3.09095 31.3301 2.9894 31.5844 2.98828C31.7753 2.99525 31.9604 3.05546 32.1189 3.16209C32.2773 3.26873 32.4028 3.41754 32.4811 3.59173L35.8808 10.5187L39.2806 3.59173C39.359 3.41723 39.4849 3.2682 39.6437 3.16154C39.8026 3.05489 39.9881 2.99486 40.1794 2.98828C40.4368 2.99212 40.6827 3.09611 40.8648 3.27818C41.0468 3.46026 41.1508 3.70611 41.1547 3.96358V12.6095C41.1502 12.8672 41.0441 13.1128 40.8594 13.2927C40.6748 13.4725 40.4265 13.5722 40.1687 13.5699Z" fill="#423B3C"/>
<path d="M45.9045 13.5692C45.6293 13.5692 45.3654 13.4601 45.1706 13.2657C44.9758 13.0713 44.866 12.8075 44.8655 12.5323V4.03302C44.8655 3.89667 44.8924 3.76166 44.9446 3.63572C44.9969 3.50977 45.0734 3.39537 45.1699 3.29906C45.2664 3.20274 45.381 3.12641 45.5071 3.07442C45.6331 3.02244 45.7682 2.99582 45.9045 2.9961C46.0396 2.99554 46.1735 3.02177 46.2984 3.07328C46.4233 3.12479 46.5368 3.20055 46.6322 3.29619C46.7277 3.39183 46.8032 3.50544 46.8544 3.63046C46.9057 3.75547 46.9317 3.88941 46.9308 4.02452V12.5238C46.9336 12.6603 46.9092 12.7959 46.8588 12.9228C46.8085 13.0496 46.7333 13.1652 46.6377 13.2625C46.5421 13.3599 46.428 13.4372 46.3021 13.4899C46.1762 13.5426 46.041 13.5695 45.9045 13.5692Z" fill="#423B3C"/>
<path d="M37.5361 21.6872C37.8293 22.2758 39.2232 24.8489 39.2232 25.344C39.2204 25.6089 39.1129 25.8619 38.9242 26.0478C38.7355 26.2337 38.481 26.3375 38.2161 26.3363C38.0316 26.3345 37.8513 26.2813 37.6955 26.1826C37.5397 26.0838 37.4146 25.9435 37.3343 25.7775C37.1792 25.4673 35.5048 22.1207 35.4899 22.0442H32.6533V25.3122C32.6505 25.5851 32.5399 25.8459 32.3457 26.0378C32.1515 26.2296 31.8893 26.3369 31.6164 26.3363C31.4816 26.3377 31.3479 26.3122 31.2231 26.2612C31.0983 26.2102 30.985 26.1348 30.8897 26.0394C30.7945 25.944 30.7193 25.8305 30.6686 25.7056C30.6179 25.5807 30.5926 25.4469 30.5943 25.3122V16.9148C30.5926 16.7801 30.6179 16.6463 30.6686 16.5214C30.7193 16.3965 30.7945 16.283 30.8897 16.1876C30.985 16.0922 31.0983 16.0168 31.2231 15.9658C31.3479 15.9148 31.4816 15.8893 31.6164 15.8907H35.4559C37.5021 15.8907 39.2211 16.7279 39.2211 18.9908C39.2232 20.1998 38.6665 21.207 37.5361 21.6872ZM35.7534 17.7966H32.6533V20.2763H35.7534C36.512 20.2763 37.1622 19.8726 37.1622 19.0524C37.1622 18.2322 36.5183 17.7966 35.7534 17.7966Z" fill="#423B3C"/>
<path d="M46.6946 26.4118C45.6329 26.4261 44.5909 26.1244 43.701 25.5451C42.8112 24.9658 42.1136 24.135 41.6971 23.1583C41.2805 22.1816 41.1637 21.1031 41.3616 20.0599C41.5595 19.0167 42.063 18.0559 42.8083 17.2995C43.5535 16.5432 44.5068 16.0255 45.547 15.8122C46.5872 15.599 47.6673 15.6998 48.65 16.1019C49.6328 16.504 50.4738 17.1892 51.0662 18.0704C51.6586 18.9516 51.9756 19.989 51.9769 21.0508C51.9862 21.7508 51.8565 22.4456 51.5953 23.0951C51.3341 23.7446 50.9466 24.3357 50.4553 24.8344C49.964 25.333 49.3786 25.7292 48.733 26C48.0875 26.2707 47.3946 26.4107 46.6946 26.4118ZM46.6946 17.6107C44.7568 17.6107 43.4564 19.1449 43.4564 21.0508C43.4564 22.9568 44.7568 24.5058 46.6946 24.5058C48.6325 24.5058 49.918 22.9568 49.918 21.0508C49.918 19.1449 48.6303 17.6107 46.6946 17.6107Z" fill="#423B3C"/>
<path d="M59.6336 22.3055H56.8288V25.3122C56.8288 25.4477 56.8019 25.582 56.7497 25.7071C56.6974 25.8321 56.6208 25.9456 56.5243 26.0409C56.4279 26.1362 56.3135 26.2113 56.1877 26.262C56.062 26.3128 55.9275 26.338 55.7919 26.3363C55.6571 26.3377 55.5234 26.3122 55.3986 26.2612C55.2738 26.2102 55.1605 26.1348 55.0653 26.0394C54.9701 25.944 54.8949 25.8305 54.8441 25.7056C54.7934 25.5807 54.7681 25.4469 54.7699 25.3122V16.9148C54.7681 16.7801 54.7934 16.6463 54.8441 16.5214C54.8949 16.3965 54.9701 16.283 55.0653 16.1876C55.1605 16.0922 55.2738 16.0168 55.3986 15.9658C55.5234 15.9148 55.6571 15.8893 55.7919 15.8907H59.6336C62.3151 15.8907 63.4158 17.4418 63.4158 19.114C63.4158 20.7863 62.3151 22.3055 59.6336 22.3055ZM59.9289 17.7818H56.8288V20.3996H59.9289C60.9361 20.3996 61.3398 19.7345 61.3398 19.1247C61.3398 18.5148 60.9361 17.7818 59.9289 17.7818Z" fill="#423B3C"/>
<path d="M72.7613 26.211H66.9053C66.7687 26.2113 66.6335 26.1846 66.5073 26.1325C66.3811 26.0803 66.2665 26.0038 66.1699 25.9073C66.0734 25.8107 65.9969 25.6961 65.9447 25.5699C65.8926 25.4437 65.8659 25.3085 65.8662 25.1719V16.9149C65.8665 16.7792 65.8937 16.6449 65.9462 16.5198C65.9987 16.3947 66.0754 16.2812 66.1721 16.186C66.2687 16.0908 66.3832 16.0156 66.5091 15.9649C66.6349 15.9142 66.7696 15.889 66.9053 15.8907H72.5297C72.7866 15.8907 73.0331 15.9928 73.2148 16.1745C73.3965 16.3562 73.4986 16.6027 73.4986 16.8596C73.4986 17.1166 73.3965 17.363 73.2148 17.5448C73.0331 17.7265 72.7866 17.8285 72.5297 17.8285H67.9252V20.0447H70.475C70.6022 20.0456 70.728 20.0715 70.8453 20.1209C70.9625 20.1704 71.0688 20.2425 71.1582 20.333C71.2476 20.4236 71.3183 20.5309 71.3662 20.6488C71.4141 20.7666 71.4383 20.8928 71.4375 21.02C71.4381 21.1465 71.4135 21.2718 71.3653 21.3887C71.3171 21.5056 71.2462 21.6118 71.1567 21.7012C71.0672 21.7905 70.9608 21.8612 70.8438 21.9091C70.7268 21.957 70.6014 21.9813 70.475 21.9805H67.9252V24.2774H72.7613C73.0188 24.2823 73.2643 24.3869 73.4462 24.5692C73.6281 24.7515 73.7322 24.9973 73.7366 25.2548C73.7332 25.5107 73.6288 25.7548 73.446 25.934C73.2633 26.1131 73.0172 26.2127 72.7613 26.211Z" fill="#423B3C"/>
<path d="M83.4795 21.6872C83.7727 22.2758 85.1687 24.8489 85.1687 25.344C85.1659 25.6089 85.0585 25.8619 84.8698 26.0478C84.6811 26.2337 84.4265 26.3375 84.1616 26.3363C83.9768 26.3347 83.7962 26.2815 83.64 26.1828C83.4839 26.0841 83.3584 25.9437 83.2776 25.7775C83.1225 25.4673 81.4503 22.1207 81.4354 22.0442H78.5924V25.3122C78.5891 25.5853 78.478 25.8461 78.2835 26.0379C78.0889 26.2297 77.8266 26.3369 77.5534 26.3363C77.4186 26.3377 77.2849 26.3122 77.1601 26.2612C77.0353 26.2102 76.922 26.1348 76.8267 26.0394C76.7315 25.944 76.6563 25.8305 76.6056 25.7056C76.5549 25.5807 76.5296 25.4469 76.5313 25.3122V16.9148C76.5296 16.7801 76.5549 16.6463 76.6056 16.5214C76.6563 16.3965 76.7315 16.283 76.8267 16.1876C76.922 16.0922 77.0353 16.0168 77.1601 15.9658C77.2849 15.9148 77.4186 15.8893 77.5534 15.8907H81.3972C83.4413 15.8907 85.1624 16.7279 85.1624 18.9908C85.1581 20.1998 84.5993 21.207 83.4795 21.6872ZM81.6862 17.7966H78.5924V20.2763H81.6904C82.4511 20.2763 83.1013 19.8726 83.1013 19.0524C83.1013 18.2322 82.4617 17.7966 81.6862 17.7966Z" fill="#423B3C"/>
<path d="M92.6276 26.4118C91.5659 26.4257 90.5241 26.1237 89.6345 25.5441C88.7449 24.9645 88.0477 24.1336 87.6315 23.1568C87.2153 22.1801 87.0988 21.1017 87.2969 20.0586C87.495 19.0155 87.9987 18.0549 88.7441 17.2987C89.4894 16.5426 90.4427 16.0251 91.4829 15.8121C92.523 15.599 93.603 15.6999 94.5856 16.1021C95.5682 16.5042 96.4091 17.1894 97.0014 18.0706C97.5937 18.9518 97.9106 19.9891 97.912 21.0509C97.9213 21.751 97.7915 22.446 97.5302 23.0956C97.2688 23.7452 96.8812 24.3365 96.3896 24.8352C95.8981 25.3338 95.3124 25.73 94.6666 26.0006C94.0208 26.2712 93.3278 26.411 92.6276 26.4118ZM92.6276 17.6108C90.6918 17.6108 89.3893 19.1449 89.3893 21.0509C89.3893 22.9568 90.6918 24.5058 92.6276 24.5058C94.5633 24.5058 95.8509 22.9568 95.8509 21.0509C95.8509 19.1449 94.5654 17.6108 92.6276 17.6108Z" fill="#423B3C"/>
<path d="M19.5806 0.691406H6.355C4.77418 0.691406 3.25811 1.31935 2.14031 2.43709C1.02251 3.55483 0.394531 5.07081 0.394531 6.65154L0.394531 19.8743C0.39461 21.1778 0.822787 22.4452 1.61325 23.4817C2.40371 24.5182 3.51271 25.2664 4.76979 25.6113C4.82291 26.3699 5.43702 27.1306 6.19138 27.1306H19.7421C20.4986 27.1306 21.1106 26.3699 21.1637 25.6113C22.4212 25.2668 23.5307 24.5187 24.3215 23.4822C25.1124 22.4457 25.5409 21.1781 25.5411 19.8743V6.65154C25.5411 5.07081 24.9131 3.55483 23.7953 2.43709C22.6775 1.31935 21.1615 0.691406 19.5806 0.691406V0.691406ZM11.6865 20.1293C11.6865 20.8055 11.4178 21.4541 10.9396 21.9323C10.4614 22.4104 9.81283 22.6791 9.13655 22.6791H5.2394C4.56312 22.6791 3.91453 22.4104 3.43633 21.9323C2.95812 21.4541 2.68947 20.8055 2.68947 20.1293V6.39868C2.68947 5.72244 2.95812 5.07389 3.43633 4.59571C3.91453 4.11753 4.56312 3.8489 5.2394 3.8489H9.13655C9.81283 3.8489 10.4614 4.11753 10.9396 4.59571C11.4178 5.07389 11.6865 5.72244 11.6865 6.39868V20.1293ZM23.244 20.1293C23.244 20.8055 22.9754 21.4541 22.4972 21.9323C22.019 22.4104 21.3704 22.6791 20.6941 22.6791H16.7991C16.1228 22.6791 15.4742 22.4104 14.996 21.9323C14.5178 21.4541 14.2492 20.8055 14.2492 20.1293V6.39868C14.2492 5.72244 14.5178 5.07389 14.996 4.59571C15.4742 4.11753 16.1228 3.8489 16.7991 3.8489H20.6941C21.3704 3.8489 22.019 4.11753 22.4972 4.59571C22.9754 5.07389 23.244 5.72244 23.244 6.39868V20.1293Z" fill="#FF3F20"/>
<path d="M17.8721 11.1406C17.4519 11.1406 17.0411 11.2652 16.6917 11.4987C16.3422 11.7322 16.0699 12.0641 15.9091 12.4523C15.7482 12.8406 15.7062 13.2678 15.7881 13.68C15.8701 14.0922 16.0725 14.4708 16.3697 14.7679C16.6668 15.0651 17.0454 15.2675 17.4576 15.3494C17.8698 15.4314 18.297 15.3894 18.6853 15.2285C19.0735 15.0677 19.4054 14.7954 19.6389 14.4459C19.8723 14.0965 19.997 13.6857 19.997 13.2654C19.997 12.7019 19.7731 12.1615 19.3746 11.763C18.9761 11.3645 18.4357 11.1406 17.8721 11.1406ZM17.8721 14.2004C17.6877 14.2 17.5076 14.1449 17.3545 14.0421C17.2014 13.9394 17.0821 13.7936 17.0119 13.6231C16.9416 13.4526 16.9234 13.2651 16.9596 13.0843C16.9959 12.9035 17.0849 12.7375 17.2154 12.6072C17.346 12.477 17.5122 12.3884 17.6931 12.3525C17.874 12.3167 18.0614 12.3353 18.2317 12.406C18.402 12.4766 18.5476 12.5962 18.65 12.7496C18.7524 12.9029 18.8071 13.0832 18.8071 13.2676C18.8065 13.5152 18.7078 13.7524 18.5325 13.9273C18.3572 14.1022 18.1197 14.2004 17.8721 14.2004Z" fill="#FF3F20"/>
<path d="M8.09309 11.1406C7.67284 11.1406 7.26202 11.2652 6.9126 11.4987C6.56317 11.7322 6.29083 12.0641 6.13001 12.4523C5.96918 12.8406 5.9271 13.2678 6.00909 13.68C6.09108 14.0922 6.29345 14.4708 6.59061 14.7679C6.88777 15.0651 7.26638 15.2675 7.67855 15.3494C8.09073 15.4314 8.51796 15.3894 8.90622 15.2285C9.29448 15.0677 9.62634 14.7954 9.85981 14.4459C10.0933 14.0965 10.2179 13.6857 10.2179 13.2654C10.2179 12.9864 10.163 12.7101 10.0562 12.4523C9.94939 12.1945 9.79287 11.9603 9.59556 11.763C9.39826 11.5657 9.16402 11.4092 8.90622 11.3024C8.64843 11.1956 8.37212 11.1406 8.09309 11.1406ZM8.09309 14.2004C7.9086 14.2004 7.72825 14.1457 7.57485 14.0432C7.42145 13.9407 7.3019 13.795 7.23129 13.6245C7.16069 13.4541 7.14222 13.2665 7.17821 13.0856C7.2142 12.9046 7.30305 12.7384 7.4335 12.608C7.56395 12.4775 7.73016 12.3887 7.91111 12.3527C8.09205 12.3167 8.27961 12.3352 8.45005 12.4058C8.6205 12.4764 8.76618 12.5959 8.86868 12.7493C8.97118 12.9027 9.02588 13.0831 9.02588 13.2676C9.02532 13.5148 8.92687 13.7517 8.75205 13.9265C8.57724 14.1014 8.34031 14.1998 8.09309 14.2004Z" fill="#FF3F20"/>
</svg>
