<svg width="40" height="40" viewBox="0 0 40 40" fill="none" xmlns="http://www.w3.org/2000/svg">
<path fill-rule="evenodd" clip-rule="evenodd" d="M28.647 25.9659L39.1449 36.4638C39.5139 36.8331 39.7211 37.3338 39.7209 37.8558C39.7207 38.3778 39.5132 38.8783 39.1439 39.2473C38.7747 39.6163 38.274 39.8235 37.752 39.8233C37.23 39.8232 36.7294 39.6156 36.3604 39.2464L25.8625 28.7484C22.7243 31.1791 18.7779 32.323 14.8263 31.9473C10.8746 31.5716 7.21451 29.7046 4.59052 26.7261C1.96653 23.7477 0.575765 19.8814 0.701157 15.9139C0.82655 11.9465 2.45868 8.17575 5.26552 5.36891C8.07235 2.56207 11.8431 0.929943 15.8105 0.804551C19.778 0.679159 23.6443 2.06992 26.6227 4.69391C29.6012 7.31791 31.4682 10.978 31.8439 14.9297C32.2196 18.8813 31.0757 22.8277 28.645 25.9659H28.647ZM16.3051 28.1143C19.4102 28.1143 22.3881 26.8808 24.5837 24.6852C26.7793 22.4895 28.0128 19.5116 28.0128 16.4065C28.0128 13.3015 26.7793 10.3236 24.5837 8.12794C22.3881 5.93232 19.4102 4.69883 16.3051 4.69883C13.2 4.69883 10.2221 5.93232 8.0265 8.12794C5.83087 10.3236 4.59739 13.3015 4.59739 16.4065C4.59739 19.5116 5.83087 22.4895 8.0265 24.6852C10.2221 26.8808 13.2 28.1143 16.3051 28.1143V28.1143Z" fill="#443988"/>
<path d="M11.5312 21.4261L21.169 11.7884" stroke="#443988" stroke-width="3" stroke-linecap="round" stroke-linejoin="round"/>
<path d="M21.168 21.4261L11.5302 11.7884" stroke="#443988" stroke-width="3" stroke-linecap="round" stroke-linejoin="round"/>
</svg>
