<svg width="5" height="9" viewBox="0 0 5 9" fill="none" xmlns="http://www.w3.org/2000/svg">
<path d="M0.985523 8.11613C1.07599 8.11642 1.16538 8.09772 1.24712 8.0614C1.32886 8.02509 1.40087 7.97208 1.45786 7.90627L4.38275 4.50315C4.47182 4.40166 4.52051 4.27436 4.52051 4.14299C4.52051 4.01161 4.47182 3.88431 4.38275 3.78282L1.35492 0.379702C1.25213 0.263873 1.10443 0.191032 0.944299 0.177204C0.784171 0.163377 0.624737 0.209694 0.50107 0.305968C0.377404 0.402241 0.299634 0.540584 0.284871 0.690564C0.270107 0.840543 0.319559 0.989872 0.422347 1.1057L3.12923 4.14582L0.513181 7.18594C0.439131 7.2692 0.392092 7.37058 0.377631 7.47809C0.363171 7.5856 0.381893 7.69474 0.431583 7.79259C0.481273 7.89045 0.559852 7.97292 0.65802 8.03026C0.756189 8.0876 0.869839 8.1174 0.985523 8.11613Z" fill="#424143"/>
</svg>
