<svg width="32" height="34" viewBox="0 0 32 34" fill="none" xmlns="http://www.w3.org/2000/svg">
<path d="M20.6332 17.4053L14.1306 25.5335L11.3438 22.2764" stroke="#443988" stroke-width="2.32236" stroke-linecap="round" stroke-linejoin="round"/>
<path d="M9.02177 11.0189V8.69657C9.02177 6.84879 9.7558 5.07668 11.0624 3.7701C12.369 2.46352 14.1411 1.72949 15.9888 1.72949V1.72949C17.8366 1.72949 19.6087 2.46352 20.9153 3.7701C22.2219 5.07668 22.9559 6.84879 22.9559 8.69657V11.0189M3.21587 11.0189C2.9079 11.0189 2.61255 11.1413 2.39479 11.359C2.17703 11.5768 2.05469 11.8721 2.05469 12.1801V27.856C2.05469 30.0507 3.92419 31.9202 6.11882 31.9202H25.8589C28.0535 31.9202 29.923 30.1414 29.923 27.9468V12.1801C29.923 11.8721 29.8007 11.5768 29.5829 11.359C29.3651 11.1413 29.0698 11.0189 28.7618 11.0189H3.21587Z" stroke="#443988" stroke-width="2.32236" stroke-linecap="round" stroke-linejoin="round"/>
</svg>
