<svg width="36" height="26" viewBox="0 0 36 26" fill="none" xmlns="http://www.w3.org/2000/svg">
<path d="M28.4172 6.47297C28.2079 9.40833 26.0529 11.6696 23.7029 11.6696C21.353 11.6696 19.1944 9.40905 18.9887 6.47297C18.7744 3.41924 20.8722 1.27637 23.7029 1.27637C26.5336 1.27637 28.6315 3.47482 28.4172 6.47297Z" stroke="#443988" stroke-width="2.3096" stroke-linecap="round" stroke-linejoin="round"/>
<path d="M23.7033 16.2891C19.0484 16.2891 14.572 18.6254 13.4505 23.1753C13.302 23.7772 13.6755 24.3727 14.2877 24.3727H33.1197C33.7318 24.3727 34.1032 23.7772 33.9568 23.1753C32.8354 18.5525 28.359 16.2891 23.7033 16.2891Z" stroke="#443988" stroke-width="2.3096" stroke-miterlimit="10"/>
<path d="M13.9885 7.76776C13.8213 10.112 12.0799 11.9582 10.2028 11.9582C8.32567 11.9582 6.5814 10.1127 6.41712 7.76776C6.2464 5.32897 7.94139 3.58594 10.2028 3.58594C12.4642 3.58594 14.1592 5.37371 13.9885 7.76776Z" stroke="#443988" stroke-width="2.3096" stroke-linecap="round" stroke-linejoin="round"/>
<path d="M14.4174 16.4329C13.1282 15.836 11.7082 15.6064 10.2032 15.6064C6.48894 15.6064 2.9104 17.4722 2.01398 21.1062C1.89612 21.5869 2.19469 22.0625 2.68326 22.0625H10.7032" stroke="#443988" stroke-width="2.3096" stroke-miterlimit="10" stroke-linecap="round"/>
</svg>
